<svg width="100" height="121" viewBox="0 0 100 121" fill="none" xmlns="http://www.w3.org/2000/svg">
<mask id="mask0_230_2391" style="mask-type:luminance" maskUnits="userSpaceOnUse" x="0" y="0" width="100" height="121">
<path d="M48.3367 0.914592L0.830078 26.9561L52.2914 120.835L99.798 94.7939L48.3367 0.914592Z" fill="white"/>
</mask>
<g mask="url(#mask0_230_2391)">
<path d="M55.205 33.8686C57.2249 37.5703 59.2819 41.2516 61.2091 45.0022C61.1098 45.0491 61.0104 45.0962 60.9111 45.1431C56.701 37.7828 52.7419 30.2812 48.6017 22.8713C47.2219 23.5213 45.8945 24.1443 44.5175 24.7928C46.5806 28.5565 48.6482 32.2975 50.6861 36.0526C52.7233 39.8064 54.8654 43.5065 56.6689 47.3995C56.463 47.3574 56.3333 47.2605 56.2537 47.1324C55.9636 46.6679 55.6771 46.1996 55.4135 45.7187C51.7158 38.9903 48.0225 32.2596 44.3279 25.5296C44.2255 25.3429 44.1232 25.1563 43.9989 24.9296L40.1174 27.0573C40.2433 27.287 40.322 27.4305 40.4006 27.574C42.1577 30.7795 43.9214 33.9831 45.6713 37.1925C47.8682 41.2207 50.0544 45.2532 52.24 49.2878C52.3485 49.4858 52.4017 49.7124 52.4816 49.9263C52.412 49.9626 52.3401 49.9983 52.2703 50.0346C52.0822 49.7662 51.8668 49.5129 51.7087 49.228C47.8241 42.1653 43.9445 35.098 40.0656 28.0321C39.9547 27.8298 39.8445 27.6288 39.6383 27.2527C38.6914 28.3281 37.839 29.3068 36.9724 30.2765C36.7053 30.576 36.7044 30.8229 36.9035 31.1862C40.6582 38.0083 44.3948 44.8386 48.1292 51.6718C48.2551 51.9014 48.3085 52.1691 48.3956 52.4199C48.1993 52.4193 48.1062 52.3789 48.0676 52.3085C44.1998 45.2628 40.3376 38.2138 36.4214 31.0696C36.2041 31.3679 36.054 31.5435 35.9362 31.7406C35.3084 32.7885 34.7098 33.8522 34.0557 34.8828C33.8497 35.2085 33.8458 35.4329 34.0282 35.7622C36.4149 40.1028 38.7903 44.4497 41.1613 48.7989C42.132 50.5798 43.0846 52.3723 44.0381 54.1627C44.1295 54.3329 44.1635 54.5345 44.2413 54.7719C44.084 54.7574 44.0017 54.7706 43.9876 54.7448C40.4712 48.4697 36.9584 42.1907 33.4368 35.896C32.6121 37.1601 31.7612 38.448 30.9357 39.7517C30.868 39.8597 30.9245 40.0957 30.9958 40.2359C31.3121 40.8539 31.6567 41.4585 31.9903 42.0671C34.5267 46.701 37.0645 51.334 39.595 55.971C39.7406 56.2366 39.8202 56.5383 39.929 56.8221C39.8426 56.862 39.7577 56.9011 39.672 56.9425C38.1022 54.2318 36.6234 51.4693 35.113 48.7243C33.5831 45.9469 32.0655 43.1647 30.524 40.3526C29.4805 41.5276 28.4884 42.6465 27.4639 43.8016C27.5804 44.0141 27.7204 44.2696 27.8605 44.5251C30.3939 49.1605 32.9274 53.796 35.4566 58.4337C35.555 58.6131 35.5966 58.8217 35.6648 59.0177C35.5986 59.0503 35.5317 59.0814 35.464 59.1147C35.2743 58.8435 35.0551 58.5865 34.8969 58.298C32.3859 53.7343 29.8813 49.1653 27.376 44.5984C27.2753 44.4147 27.1738 44.2294 27.088 44.073C25.8922 44.9974 24.7462 45.8831 23.5518 46.8067C26.1513 51.6169 28.8386 56.4274 31.4009 61.3028C31.3202 61.3563 31.2395 61.4099 31.1601 61.4627C30.9911 61.2362 30.7905 61.0269 30.656 60.7815C28.2179 56.3644 25.787 51.9435 23.3561 47.5225C23.2547 47.3373 23.154 47.1536 23.0619 46.9857C20.8588 47.9693 18.7233 48.8823 16.3234 49.0031L27.2767 68.9847C41.2322 61.219 55.1512 53.4715 69.0522 45.7357L54.0379 18.3456C52.5925 20.1087 50.9628 21.5118 49.0719 22.6733C51.1343 26.4357 53.1772 30.1489 55.2072 33.8693L55.205 33.8686Z" fill="#0030AB"/>
<path d="M59.4286 68.1762C55.9062 70.0733 52.4741 72.0163 48.9952 73.8636C49.2029 74.2425 49.4752 74.7392 49.7475 75.2359C53.305 81.7088 56.8647 88.1787 60.4207 94.6523C62.0911 97.6928 63.8223 100.701 65.3999 103.79C66.9095 106.745 70.0362 108.417 73.316 107.912C76.5983 107.409 78.2056 104.44 77.2902 101.7C76.8483 100.377 76.3288 99.0577 75.6637 97.834C70.704 88.7113 65.6985 79.6139 60.7087 70.508C60.2893 69.7429 59.8707 68.9792 59.4292 68.1739L59.4286 68.1762Z" fill="#0030AB"/>
<path d="M46.4232 2.86534C32.0016 10.9219 17.6346 18.9486 3.21738 27.0028C3.32911 27.2067 3.43218 27.3947 3.5353 27.5828C4.60308 29.5102 5.67077 31.4376 6.73991 33.3642L50.1828 9.55031C49.1277 7.64597 48.0733 5.74293 47.0139 3.84083C46.8308 3.51365 46.6248 3.19914 46.4209 2.86468L46.4232 2.86534Z" fill="white"/>
<path d="M21.587 25.9118C22.9764 28.5179 23.6655 31.2428 22.7618 34.1612C22.3121 35.6156 21.4264 36.7208 19.8089 36.9747C18.3268 37.2066 17.1142 36.5644 15.9911 35.6905C15.9488 35.6576 15.9135 35.6135 15.8718 35.5785C15.661 35.4084 15.3642 35.2314 15.6081 34.9371C15.6823 34.8479 16.03 34.9168 16.219 34.9961C17.5434 35.5526 18.8542 35.2671 19.8585 34.082C21.6013 32.0234 21.8717 29.6425 21.2865 27.0902C21.1741 26.5992 20.7266 26.1538 21.0438 25.5917C21.0609 25.5618 21.0908 25.5379 21.1647 25.4581L6.73828 33.3662C9.24089 37.8805 11.7412 42.3939 14.2294 46.9161C14.4764 47.3668 14.7099 47.476 15.2045 47.384C17.9196 46.8813 20.266 45.5391 22.3479 43.8677C25.6749 41.1984 28.4026 37.9297 30.4918 34.2046C31.8816 31.7271 33.0782 29.1353 34.2602 26.5477C35.8177 23.1365 38.1018 20.4582 41.5835 18.936C43.1661 18.244 44.7905 17.6485 46.4029 17.0241C49.5755 15.7965 50.5733 13.7617 50.8651 10.8987C50.8756 10.7884 50.7967 10.6617 50.7377 10.5541C50.5544 10.2196 50.366 9.88598 50.1812 9.55233L21.1647 25.4581C21.3105 25.6116 21.494 25.7387 21.5878 25.9132L21.587 25.9118Z" fill="white"/>
<path d="M33.9579 79.2093C34.7054 78.9246 35.4222 78.5465 36.1263 78.1624C47.8286 71.7552 59.529 65.3414 71.2249 58.9226C71.9512 58.5245 72.6784 58.1109 73.3496 57.6292C74.6584 56.6896 74.7863 56.0202 74.0232 54.6315C73.0728 52.9011 72.1194 51.1723 71.1684 49.4442L27.3279 73.476C28.1069 74.8971 28.8801 76.3214 29.6362 77.755C30.5611 79.5069 32.517 79.7582 33.9579 79.2093Z" fill="#0030AB"/>
<path d="M70.9825 49.1061C70.4403 48.1171 69.8974 47.1266 69.3277 46.0873C69.1195 46.2014 68.9628 46.2835 68.8094 46.3714C67.7143 46.996 66.6256 47.632 65.5228 48.2458C52.9053 55.265 40.2854 62.2799 27.6663 69.2962C27.0199 69.656 27.0153 69.6511 26.6496 68.9705C25.5265 66.8774 24.402 64.785 23.2746 62.6943C23.1928 62.545 23.0958 62.4021 22.9515 62.1695C22.4593 63.5296 22.5685 64.7708 23.1807 65.9081C24.5432 68.4412 25.9449 70.9509 27.3275 73.473L71.1679 49.4412C71.1066 49.3293 71.0452 49.2173 70.983 49.1039L70.9825 49.1061Z" fill="#0030AB"/>
<path d="M76.0392 107.817C74.0884 108.887 71.7371 109.113 69.5888 108.439C67.4259 107.76 65.6734 106.255 64.6513 104.2C63.5196 101.924 62.2722 99.6554 61.0646 97.4624C60.6821 96.7647 60.2967 96.0685 59.9176 95.37C57.2054 90.3952 54.4423 85.3406 51.7694 80.4512L48.5095 74.4872C48.4134 74.5604 48.3106 74.6317 48.1986 74.6931L43.6884 77.1654C41.7427 78.2339 39.4365 79.4961 37.0823 80.7661C35.4655 81.6375 34.0789 81.8188 32.7193 81.3377C31.0108 80.734 29.7429 79.6948 28.9469 78.2495C28.1603 76.8213 27.3765 75.3711 26.5753 73.8856L26.4187 73.5999L27.4579 73.0302L27.6153 73.3174C28.5549 75.0313 29.2678 76.3523 29.926 77.6008C30.7681 79.1982 32.547 79.3954 33.8412 78.9025C34.5938 78.6169 35.3335 78.2227 35.968 77.8749C41.8879 74.6335 47.8057 71.3915 53.7241 68.1472C59.6426 64.9029 65.2868 61.809 71.0665 58.6351C71.7196 58.2771 72.4728 57.8529 73.1575 57.3618C74.3187 56.5275 74.4265 56.0465 73.7349 54.7885C73.1983 53.8095 70.8803 49.6011 70.8803 49.6011L70.7229 49.3139L73.9053 47.5695L74.0627 47.8566C75.113 49.7692 75.9921 51.3763 76.8674 53.0003C77.7585 54.6531 77.9265 56.1348 77.3793 57.5305C77.0259 58.4318 76.3581 59.1786 75.4505 59.6855C72.3511 61.4181 69.1914 63.1631 66.1351 64.8516C64.9739 65.4918 63.8136 66.1335 62.6533 66.7752L66.7261 74.2051C70.1918 80.5174 73.772 87.0453 77.3009 93.4622C77.618 94.0409 77.9636 94.6169 78.2969 95.1772C78.6707 95.8047 79.0588 96.4547 79.4133 97.1115C81.1365 100.31 80.0334 104.928 77.002 107.197C76.6962 107.425 76.3718 107.634 76.0372 107.817L76.0392 107.817ZM50.0374 75.0778L53.2833 80.9822C55.7598 85.4864 58.2355 89.9892 60.7105 94.494C61.185 95.3596 61.6653 96.2221 62.1465 97.0865C63.3346 99.2198 64.5632 101.427 65.6932 103.642C67.1631 106.521 70.1377 108.072 73.2674 107.59C73.8832 107.494 74.4534 107.305 74.9615 107.026C76.8348 105.999 77.6644 103.852 76.9804 101.804C76.4681 100.27 75.9588 99.058 75.3768 97.9894C71.6015 91.0443 67.7343 83.9964 63.9946 77.181C62.804 75.0091 61.6135 72.8373 60.423 70.6654L59.3001 68.617C58.5413 69.0273 57.7854 69.4398 57.0318 69.8529C56.3443 70.2298 55.6595 70.6052 54.9764 70.9834C54.2946 71.3571 53.6143 71.7338 52.9338 72.1068C51.553 72.8637 50.4617 73.4544 49.4434 73.9977C49.4434 73.9977 49.8455 74.7312 50.0359 75.0786L50.0374 75.0778Z" fill="black"/>
<path d="M50.0549 9.99541L49.8983 9.70971C48.8425 7.80747 47.7874 5.90308 46.7288 4.00242C46.6099 3.78559 46.4789 3.57743 46.3401 3.35486C46.3307 3.33762 46.3198 3.32117 46.3089 3.30472L3.65926 27.1318C3.71354 27.2309 3.76703 27.3284 3.82057 27.4261L7.18481 33.4953L6.19429 34.0382L6.03689 33.7511C4.77605 31.4611 3.71428 29.5378 2.63346 27.5933C2.29379 26.9805 2.4094 26.5886 3.035 26.2382C7.35549 23.825 11.7445 21.3632 15.9893 18.9822C18.7491 17.4338 21.5103 15.8847 24.2717 14.3393C29.4099 11.463 34.5497 8.58956 39.6888 5.71837L45.7347 2.33884C46.4581 1.94229 46.9581 2.08822 47.3577 2.81382L47.9878 3.9563C48.9316 5.66786 49.9069 7.43682 50.8492 9.18658L51.0058 9.47228L50.0541 9.99397L50.0549 9.99541Z" fill="black"/>
<path d="M71.0375 49.8872L70.696 49.2643C70.3231 48.5875 69.9517 47.9099 69.5723 47.2144L69.1978 46.5311L69.1361 46.5649C69.0786 46.5964 69.0255 46.6255 68.971 46.6554C68.6096 46.861 68.2475 47.0688 67.8875 47.2774C67.1662 47.6915 66.4213 48.1203 65.6814 48.5314C54.4258 54.7928 43.1671 61.0523 31.9099 67.3108L27.7074 69.6463C27.4676 69.7777 27.2193 69.9138 26.9629 69.8378C26.7021 69.7604 26.58 69.5343 26.3608 69.1243C25.2622 67.0757 24.1606 65.0287 23.059 62.9816C22.8569 63.9548 22.9925 64.8663 23.4693 65.7529C24.3889 67.4647 25.3452 69.1956 26.2686 70.8699C26.7169 71.6844 27.1675 72.4996 27.6145 73.315L27.7719 73.602L26.7312 74.1725L26.3096 73.3899C25.1887 71.3143 24.0314 69.169 22.8651 67.0754C22.2433 65.9583 21.6875 64.7229 21.8441 63.2649C21.8885 62.8523 21.9952 62.4577 22.109 62.0388C22.1502 61.8856 22.1933 61.7294 22.2333 61.5674L21.489 60.2095C20.8626 59.0669 20.2158 57.8869 19.569 56.707C18.1114 54.0411 16.6058 51.2841 15.1058 48.524C14.9516 48.2426 14.8845 48.1917 14.6727 48.2107C14.3251 48.2406 13.9452 47.9187 13.8056 47.6742C12.392 45.2214 11.315 43.3215 10.3156 41.5153C9.20515 39.5067 8.09691 37.495 6.99087 35.4842L5.87928 33.4632L6.86691 32.9218L7.02347 33.2074C9.55103 37.764 12.0254 42.2301 14.5159 46.7566C14.6945 47.0823 14.7886 47.1279 15.1457 47.0609C16.5477 46.8021 17.8946 46.3101 19.2641 45.5594C20.2216 45.0346 21.1637 44.3967 22.1443 43.611C25.3974 41.0008 28.1093 37.7817 30.2075 34.0424C31.5514 31.648 32.7032 29.1685 33.9629 26.4095C35.4934 23.0578 37.577 20.6948 40.3331 19.184C40.6934 18.9865 41.0717 18.8015 41.4537 18.6333C42.681 18.0968 43.9499 17.6122 45.1768 17.1431C45.5474 17.0016 45.9178 16.8601 46.2875 16.7171C46.6845 16.563 47.0547 16.3936 47.3877 16.2111C49.3472 15.137 50.261 13.5926 50.5401 10.8802C50.5301 10.8483 50.4947 10.7837 50.4727 10.7435L49.7392 9.4225L50.6967 8.89764L51.0094 9.47855C51.1355 9.71187 51.2623 9.94664 51.3877 10.1822C51.5344 10.4565 51.5311 10.7775 51.5285 11.0589C51.5272 11.1791 51.5264 11.2935 51.5354 11.3949C51.5434 11.4913 51.5456 11.5872 51.5461 11.6802C51.5479 11.8399 51.5503 12.0046 51.5961 12.0915C55.5837 19.3966 59.8502 27.1833 65.4269 37.3395C65.4631 37.4056 65.5219 37.4686 65.5551 37.4951C67.5396 37.5667 68.9955 38.5812 70.1357 40.6817C71.1752 42.5984 72.2429 44.5427 73.2765 46.4217L74.2207 48.1442L71.0397 49.8879L71.0375 49.8872ZM27.4032 68.5397L68.6062 45.6084L53.9783 18.9232C52.678 20.4368 51.2087 21.707 49.5053 22.7883C50.0836 23.8434 50.6604 24.8955 51.2356 25.9448C52.6606 28.5444 54.0798 31.1267 55.4905 33.7137C55.9431 34.5427 56.3978 35.3688 56.8518 36.197C58.3996 39.0206 60.0015 41.9395 61.4985 44.8544L61.6519 45.1548L60.7818 45.5664L60.6234 45.308C58.143 40.9739 55.7108 36.5164 53.3581 32.2075C51.7626 29.2831 50.1143 26.2627 48.4602 23.2996L44.9684 24.9429C45.5412 25.988 46.1125 27.0301 46.6875 28.0721C48.0965 30.6357 49.5535 33.2868 50.9709 35.8999C51.4435 36.7722 51.9231 37.6405 52.4014 38.5096C53.9605 41.3401 55.5736 44.2659 56.9618 47.2647L57.2338 47.8531L56.5989 47.7232C56.319 47.6656 56.1079 47.5256 55.9722 47.3087C55.6454 46.7841 55.3758 46.3401 55.1233 45.8793C52.155 40.4779 49.1888 35.0736 46.2233 29.6706L43.8661 25.3773L40.5588 27.1902C40.5588 27.1902 41.7635 29.3879 42.3033 30.3726C43.5214 32.5947 44.7424 34.8152 45.9539 37.0391C48.2305 41.216 50.5379 45.4732 52.5233 49.1359C52.6114 49.2966 52.6645 49.4616 52.7182 49.6208C52.739 49.686 52.7619 49.7517 52.7856 49.8153L52.8868 50.0884L52.1615 50.458L51.999 50.226C51.9409 50.144 51.88 50.0634 51.8197 49.9808C51.6808 49.7955 51.538 49.6031 51.4185 49.3886C48.0665 43.294 44.7196 37.1986 41.3719 31.1016L39.5739 27.8216L39.099 28.3618C38.4501 29.1022 37.8348 29.8016 37.2135 30.4969C37.061 30.6682 37.038 30.7592 37.1882 31.0297C41.0828 38.1074 44.8863 45.0597 48.4147 51.5168C48.517 51.7034 48.5749 51.8975 48.6311 52.0852C48.6545 52.1619 48.6765 52.2395 48.702 52.3133L48.8533 52.7493L48.3925 52.7499C48.279 52.7505 47.9317 52.7504 47.7775 52.4691C44.1039 45.7743 40.4323 39.0763 36.7159 32.2967L36.3752 31.6751C36.3118 31.7603 36.2583 31.8363 36.2134 31.9113C35.9998 32.2674 35.7885 32.6277 35.5779 32.9858C35.1766 33.6707 34.7608 34.3765 34.3296 35.0608C34.19 35.2831 34.1871 35.3799 34.3114 35.6066C36.4921 39.5711 38.8254 43.8346 41.4453 48.6447C42.3876 50.374 43.3285 52.1413 44.2378 53.8513L44.3251 54.0106C44.4003 54.158 44.4417 54.3051 44.4865 54.4616C44.5044 54.5283 44.5247 54.5994 44.5487 54.6739L44.7022 55.148L44.2067 55.1023C44.1537 55.0977 44.112 55.0963 44.0774 55.0947C43.9792 55.0926 43.7965 55.0862 43.6976 54.9091C40.2755 48.8025 36.8584 42.695 33.4321 36.5703L33.4108 36.5316L33.1955 36.8606C32.5471 37.8506 31.8767 38.8753 31.2282 39.8991C31.2313 39.9421 31.2499 40.0271 31.2823 40.0896C31.5093 40.5309 31.7538 40.9736 31.9905 41.4021C32.0841 41.5729 32.177 41.7423 32.2706 41.9131L33.5194 44.1912C35.6396 48.0657 37.7596 51.9401 39.8762 55.8184C39.9887 56.0237 40.0627 56.2369 40.1344 56.4459C40.1641 56.5342 40.196 56.6231 40.2286 56.7098L40.3383 56.9951L39.5327 57.3713L39.3829 57.1117C38.2246 55.1108 37.0982 53.0494 36.0075 51.0562C35.6117 50.3342 35.2166 49.6099 34.8193 48.8886C33.7552 46.9574 32.6966 45.0231 31.6319 43.0773L30.4523 40.9254L27.8546 43.8522L29.1131 46.1549C31.3215 50.1974 33.5315 54.2392 35.7357 58.284C35.8191 58.4362 35.867 58.5985 35.9097 58.7412C35.9274 58.8006 35.9442 58.8586 35.9647 58.9165L36.0594 59.1913L35.3472 59.5368L35.1868 59.3092C35.1281 59.2258 35.0664 59.1438 35.0061 59.0611C34.8657 58.873 34.7199 58.6785 34.601 58.4618C32.551 54.7356 30.5052 51.007 28.4602 47.2763L26.9777 44.5719L23.9646 46.9011C24.8452 48.5279 25.7479 50.178 26.6222 51.7765C28.2978 54.84 30.0299 58.0067 31.6852 61.1559L31.8234 61.4181L31.0779 61.9107L30.8927 61.6649C30.8418 61.5958 30.7866 61.5291 30.7335 61.463C30.6052 61.3037 30.4699 61.1388 30.3637 60.945C28.3442 57.288 26.3317 53.6271 24.318 49.967L22.9144 47.4134C20.7773 48.3608 18.9226 49.1013 16.8501 49.2983L27.3997 68.5436L27.4032 68.5397Z" fill="black"/>
<path d="M21.1312 36.8751C20.7522 37.0829 20.3238 37.2243 19.8586 37.2983C18.1325 37.5687 16.7779 36.7188 15.7899 35.9481C15.7566 35.9215 15.7263 35.8933 15.6965 35.863C15.6874 35.853 15.6774 35.8417 15.6654 35.8334L15.6057 35.7858C15.4434 35.6601 15.2224 35.4882 15.192 35.2117C15.1732 35.0446 15.228 34.8821 15.3548 34.7287C15.387 34.6886 15.4275 34.657 15.4749 34.631C15.7835 34.4618 16.3224 34.6854 16.3462 34.6948C17.1762 35.0444 17.9893 35.0225 18.697 34.6346C19.0244 34.4551 19.3296 34.1981 19.6073 33.8704C21.1418 32.0585 21.5855 29.8645 20.9663 27.1648C20.9391 27.0472 20.8831 26.921 20.8223 26.7864C20.6664 26.4407 20.4551 25.9665 20.7571 25.4314C20.788 25.3752 20.8254 25.3379 20.8614 25.3014C20.8769 25.2854 20.8959 25.2657 20.9212 25.2368L21.1583 24.9781L21.4002 25.2319C21.4406 25.275 21.4854 25.3159 21.5302 25.3567C21.6493 25.4649 21.7829 25.5896 21.8736 25.7584C23.5263 28.8585 23.9075 31.5599 23.0741 34.2588C22.6916 35.4989 22.0369 36.3786 21.1312 36.8751Z" fill="black"/>
</g>
</svg>
