<svg width="135" height="30" viewBox="0 0 135 30" fill="none" xmlns="http://www.w3.org/2000/svg">
<path d="M7.2 0.919999V17.72C7.2 19.4 7.61333 20.6933 8.44 21.6C9.26667 22.5067 10.48 22.96 12.08 22.96C13.68 22.96 14.9067 22.5067 15.76 21.6C16.6133 20.6933 17.04 19.4 17.04 17.72V0.919999H23.88V17.68C23.88 20.1867 23.3467 22.3067 22.28 24.04C21.2133 25.7733 19.7733 27.08 17.96 27.96C16.1733 28.84 14.1733 29.28 11.96 29.28C9.74667 29.28 7.76 28.8533 6 28C4.26667 27.12 2.89333 25.8133 1.88 24.08C0.866667 22.32 0.36 20.1867 0.36 17.68V0.919999H7.2ZM47.3231 9.8C46.8165 8.86667 46.0831 8.16 45.1231 7.68C44.1898 7.17333 43.0831 6.92 41.8031 6.92C39.5898 6.92 37.8165 7.65333 36.4831 9.12C35.1498 10.56 34.4831 12.4933 34.4831 14.92C34.4831 17.5067 35.1765 19.5333 36.5631 21C37.9765 22.44 39.9098 23.16 42.3631 23.16C44.0431 23.16 45.4565 22.7333 46.6031 21.88C47.7765 21.0267 48.6298 19.8 49.1631 18.2H40.4831V13.16H55.3631V19.52C54.8565 21.2267 53.9898 22.8133 52.7631 24.28C51.5631 25.7467 50.0298 26.9333 48.1631 27.84C46.2965 28.7467 44.1898 29.2 41.8431 29.2C39.0698 29.2 36.5898 28.6 34.4031 27.4C32.2431 26.1733 30.5498 24.48 29.3231 22.32C28.1231 20.16 27.5231 17.6933 27.5231 14.92C27.5231 12.1467 28.1231 9.68 29.3231 7.52C30.5498 5.33333 32.2431 3.64 34.4031 2.44C36.5631 1.21333 39.0298 0.599998 41.8031 0.599998C45.1631 0.599998 47.9898 1.41333 50.2831 3.04C52.6031 4.66667 54.1365 6.92 54.8831 9.8H47.3231ZM57.9919 14.92C57.9919 12.1467 58.5919 9.68 59.7919 7.52C60.9919 5.33333 62.6585 3.64 64.7919 2.44C66.9519 1.21333 69.3919 0.599998 72.1119 0.599998C75.4452 0.599998 78.2985 1.48 80.6719 3.24C83.0452 5 84.6319 7.4 85.4319 10.44H77.9119C77.3519 9.26667 76.5519 8.37333 75.5119 7.76C74.4985 7.14667 73.3385 6.84 72.0319 6.84C69.9252 6.84 68.2185 7.57333 66.9119 9.04C65.6052 10.5067 64.9519 12.4667 64.9519 14.92C64.9519 17.3733 65.6052 19.3333 66.9119 20.8C68.2185 22.2667 69.9252 23 72.0319 23C73.3385 23 74.4985 22.6933 75.5119 22.08C76.5519 21.4667 77.3519 20.5733 77.9119 19.4H85.4319C84.6319 22.44 83.0452 24.84 80.6719 26.6C78.2985 28.3333 75.4452 29.2 72.1119 29.2C69.3919 29.2 66.9519 28.6 64.7919 27.4C62.6585 26.1733 60.9919 24.48 59.7919 22.32C58.5919 20.16 57.9919 17.6933 57.9919 14.92ZM96.2846 15.512C97.2926 15.512 98.1886 15.736 98.9726 16.184C99.7566 16.616 100.365 17.264 100.797 18.128C101.245 18.976 101.469 20 101.469 21.2V29H98.1086V21.656C98.1086 20.6 97.8446 19.792 97.3166 19.232C96.7886 18.656 96.0686 18.368 95.1566 18.368C94.2286 18.368 93.4926 18.656 92.9486 19.232C92.4206 19.792 92.1566 20.6 92.1566 21.656V29H88.7966V11.24H92.1566V17.36C92.5886 16.784 93.1646 16.336 93.8846 16.016C94.6046 15.68 95.4046 15.512 96.2846 15.512ZM117.216 15.704V29H113.832V27.32C113.4 27.896 112.832 28.352 112.128 28.688C111.44 29.008 110.688 29.168 109.872 29.168C108.832 29.168 107.912 28.952 107.112 28.52C106.312 28.072 105.68 27.424 105.216 26.576C104.768 25.712 104.544 24.688 104.544 23.504V15.704H107.904V23.024C107.904 24.08 108.168 24.896 108.696 25.472C109.224 26.032 109.944 26.312 110.856 26.312C111.784 26.312 112.512 26.032 113.04 25.472C113.568 24.896 113.832 24.08 113.832 23.024V15.704H117.216ZM123.891 17.648C124.323 17.008 124.915 16.488 125.667 16.088C126.435 15.688 127.307 15.488 128.283 15.488C129.419 15.488 130.443 15.768 131.355 16.328C132.283 16.888 133.011 17.688 133.539 18.728C134.083 19.752 134.355 20.944 134.355 22.304C134.355 23.664 134.083 24.872 133.539 25.928C133.011 26.968 132.283 27.776 131.355 28.352C130.443 28.928 129.419 29.216 128.283 29.216C127.291 29.216 126.419 29.024 125.667 28.64C124.931 28.24 124.339 27.728 123.891 27.104V29H120.531V11.24H123.891V17.648ZM130.923 22.304C130.923 21.504 130.755 20.816 130.419 20.24C130.099 19.648 129.667 19.2 129.123 18.896C128.595 18.592 128.019 18.44 127.395 18.44C126.787 18.44 126.211 18.6 125.667 18.92C125.139 19.224 124.707 19.672 124.371 20.264C124.051 20.856 123.891 21.552 123.891 22.352C123.891 23.152 124.051 23.848 124.371 24.44C124.707 25.032 125.139 25.488 125.667 25.808C126.211 26.112 126.787 26.264 127.395 26.264C128.019 26.264 128.595 26.104 129.123 25.784C129.667 25.464 130.099 25.008 130.419 24.416C130.755 23.824 130.923 23.12 130.923 22.304Z" fill="url(#paint0_radial_114_572)" fill-opacity="0.8"/>
<defs>
<radialGradient id="paint0_radial_114_572" cx="0" cy="0" r="1" gradientUnits="userSpaceOnUse" gradientTransform="translate(28.3312 31.4862) rotate(-38.2982) scale(75.0075 150.442)">
<stop offset="0.102701" stop-color="#0041EA"/>
<stop offset="0.848608" stop-color="#2900CD"/>
</radialGradient>
</defs>
</svg>
